# File created by Blade
# Date/Time:  Thu Jan 22 19:01:15 2015
# Frame Rate: 120.000 fps
#------------------------------------------------------
:FULLY-SPECIFIED
:DEGREES
2366
root -3.117938 33.233925 0.199769 9.141874 -1.222055 2.368197
RightUpLeg -1.965345 -5.757309 -1.353092
RightLeg 0.905939 -0.000000 -0.000000
RightFoot -11.603947 -3.496651 3.471974
RightToeBase 5.038817 -0.000000 -0.000000
LeftUpLeg -1.431275 4.185868 1.647806
LeftLeg 0.549255 -0.000000 -0.000000
LeftFoot -9.880496 1.118850 -10.018904
LeftToeBase 7.165109 -0.000000 -0.000000
Spine -14.757420 0.418273 -0.831693
RightShoulder -7.440533 -35.357132 -6.943621
RightArm 128.828447 -55.744907 -39.516043
RightForeArm -18.194837 -0.000000 108.565736
RightHand -4.145396 -0.000000 -1.654828
RightHandThumb1 -24.326973 -0.000000 -32.862282
LeftShoulder -24.348516 -20.636718 59.123412
LeftArm 75.631619 -53.398979 -56.955156
LeftForeArm -18.856081 -0.000000 149.837568
LeftHand 7.924457 -0.000000 33.739337
LeftHandThumb1 -26.253704 0.000000 33.147579
Head 22.203395 2.043066 9.911905
2367
root -3.126154 33.233485 0.199477 9.163167 -1.195984 2.345713
RightUpLeg -1.985931 -5.793997 -1.310480
RightLeg 0.914329 -0.000000 -0.000000
RightFoot -11.588718 -3.475888 3.476437
RightToeBase 5.013902 -0.000000 -0.000000
LeftUpLeg -1.452772 4.167076 1.684993
LeftLeg 0.541584 -0.000000 -0.000000
LeftFoot -9.889366 1.133074 -10.035180
LeftToeBase 7.163196 -0.000000 -0.000000
Spine -14.717726 0.430073 -0.881517
RightShoulder -7.510053 -35.319185 -7.052376
RightArm 129.453369 -55.144088 -40.259844
RightForeArm -18.280241 -0.000000 108.871999
RightHand -4.082207 -0.000000 -1.915952
RightHandThumb1 -24.326973 -0.000000 -32.862282
LeftShoulder -24.365329 -20.681872 59.048192
LeftArm 75.651482 -52.990230 -56.325144
LeftForeArm -18.629060 0.000000 149.709978
LeftHand 8.264533 -0.000000 32.395805
LeftHandThumb1 -26.253704 0.000000 33.147579
Head 21.923728 1.968057 9.885687
2368
root -3.134113 33.233304 0.200189 9.187685 -1.171528 2.328511
RightUpLeg -2.005015 -5.819163 -1.275803
RightLeg 0.913400 -0.000000 -0.000000
RightFoot -11.560046 -3.466820 3.514679
RightToeBase 4.918578 -0.000000 -0.000000
LeftUpLeg -1.471766 4.135630 1.726334
LeftLeg 0.539471 -0.000000 -0.000000
LeftFoot -9.876765 1.110895 -9.957926
LeftToeBase 7.102787 -0.000000 -0.000000
Spine -14.694332 0.350359 -0.921766
RightShoulder -7.467817 -35.254301 -7.178591
RightArm 129.862188 -54.697843 -40.756418
RightForeArm -18.420796 0.000000 109.424192
RightHand -4.092830 0.000000 -2.043427
RightHandThumb1 -24.326973 -0.000000 -32.862282
LeftShoulder -24.393726 -20.516062 58.938647
LeftArm 76.233020 -52.730297 -56.400029
LeftForeArm -18.692582 -0.000000 149.534234
LeftHand 8.782535 -0.000000 30.496926
LeftHandThumb1 -26.253704 0.000000 33.147579
Head 21.703143 2.031188 9.941641
2369
root -3.142236 33.232622 0.198832 9.227472 -1.151233 2.307977
RightUpLeg -2.045461 -5.843820 -1.232674
RightLeg 0.916632 -0.000000 -0.000000
RightFoot -11.569578 -3.465825 3.445203
RightToeBase 5.011253 -0.000000 -0.000000
LeftUpLeg -1.521778 4.128856 1.757241
LeftLeg 0.542694 -0.000000 -0.000000
LeftFoot -9.903546 1.110562 -10.005710
LeftToeBase 7.157216 -0.000000 -0.000000
Spine -14.698378 0.142963 -0.942229
RightShoulder -7.234944 -35.232968 -7.367862
RightArm 130.241510 -54.245703 -41.203519
RightForeArm -18.470792 -0.000000 110.041227
RightHand -2.839960 -0.000000 1.424700
RightHandThumb1 -24.326973 -0.000000 -32.862282
LeftShoulder -24.444447 -20.073368 58.733134
LeftArm 77.448363 -52.687663 -57.144748
LeftForeArm -18.736715 -0.000000 149.349038
LeftHand 8.937190 -0.000000 28.258252
LeftHandThumb1 -26.253704 0.000000 33.147579
Head 21.543532 2.182021 10.035456
2370
root -3.149902 33.230316 0.199389 9.241697 -1.146825 2.291528
RightUpLeg -2.067257 -5.844806 -1.201013
RightLeg 0.937599 -0.000000 -0.000000
RightFoot -11.593498 -3.473591 3.440715
RightToeBase 5.040993 -0.000000 -0.000000
LeftUpLeg -1.532976 4.093385 1.785674
LeftLeg 0.540287 -0.000000 -0.000000
LeftFoot -9.927537 1.148729 -10.013558
LeftToeBase 7.173501 -0.000000 -0.000000
Spine -14.649962 0.125485 -0.946743
RightShoulder -7.184245 -35.190511 -7.547531
RightArm 130.851491 -53.783749 -41.584947
RightForeArm -18.553246 -0.000000 110.472091
RightHand -1.154455 0.000000 5.350947
RightHandThumb1 -24.326973 -0.000000 -32.862282
LeftShoulder -24.471707 -20.014656 58.581215
LeftArm 78.351755 -52.564356 -57.877823
LeftForeArm -18.696615 -0.000000 149.268570
LeftHand 9.262563 -0.000000 26.592479
LeftHandThumb1 -26.253704 0.000000 33.147579
Head 21.307194 2.209156 9.940263
2371
root -3.157353 33.229394 0.199239 9.216927 -1.142904 2.274564
RightUpLeg -2.054188 -5.847684 -1.172122
RightLeg 0.961630 -0.000000 -0.000000
RightFoot -11.591067 -3.484627 3.430523
RightToeBase 4.972947 -0.000000 -0.000000
LeftUpLeg -1.513735 4.087726 1.810592
LeftLeg 0.544147 -0.000000 -0.000000
LeftFoot -9.950755 1.183246 -10.066975
LeftToeBase 7.188413 -0.000000 -0.000000
Spine -14.498864 0.529470 -0.942048
RightShoulder -7.620307 -35.123241 -7.574491
RightArm 132.037774 -53.247347 -42.044081
RightForeArm -18.521930 -0.000000 110.424627
RightHand 2.214253 0.000000 9.375535
RightHandThumb1 -24.326973 -0.000000 -32.862282
LeftShoulder -24.376129 -20.942318 58.554933
LeftArm 78.487068 -52.311668 -58.316680
LeftForeArm -18.964280 -0.000000 149.386581
LeftHand 9.528121 -0.000000 24.745811
LeftHandThumb1 -26.253704 0.000000 33.147579
Head 20.909774 1.928347 9.530000
2372
root -3.173193 33.235889 0.193399 9.270262 -1.152966 2.304090
RightUpLeg -2.149954 -5.781994 -1.164288
RightLeg 1.022283 -0.000000 -0.000000
RightFoot -11.593853 -3.569037 3.445444
RightToeBase 4.996196 -0.000000 -0.000000
LeftUpLeg -1.598220 4.063271 1.806517
LeftLeg 0.584159 -0.000000 -0.000000
LeftFoot -9.882779 1.201332 -10.140097
LeftToeBase 7.189567 -0.000000 -0.000000
Spine -14.661273 -0.831901 -1.052368
RightShoulder -5.652674 -35.268028 -8.209857
RightArm 132.295127 -52.648572 -42.473508
RightForeArm -18.434550 -0.000000 111.062435
RightHand 3.984619 -0.000000 13.575469
RightHandThumb1 -24.326973 -0.000000 -32.862282
LeftShoulder -24.812300 -18.075181 58.054848
LeftArm 82.389738 -52.672347 -60.995928
LeftForeArm -18.617922 -0.000000 149.082368
LeftHand 9.597788 0.000000 23.172318
LeftHandThumb1 -26.253704 0.000000 33.147579
Head 21.394290 2.954257 10.547260
2373
root -3.178168 33.237838 0.185264 9.323191 -1.173032 2.299491
RightUpLeg -2.261918 -5.740352 -1.147866
RightLeg 1.107489 -0.000000 -0.000000
RightFoot -11.611781 -3.584291 3.467000
RightToeBase 4.986313 -0.000000 -0.000000
LeftUpLeg -1.687564 4.032589 1.810604
LeftLeg 0.636138 -0.000000 -0.000000
LeftFoot -9.902775 1.268781 -10.139347
LeftToeBase 7.195587 -0.000000 -0.000000
Spine -14.647211 -0.828053 -1.081048
RightShoulder -5.527227 -35.258985 -8.240480
RightArm 132.986905 -51.997903 -43.141047
RightForeArm -18.190544 -0.000000 111.396350
RightHand 5.305325 -0.000000 15.572712
RightHandThumb1 -24.326973 -0.000000 -32.862282
LeftShoulder -24.847697 -18.067955 57.928408
LeftArm 83.366733 -52.550527 -61.912525
LeftForeArm -18.545954 -0.000000 149.176292
LeftHand 9.876640 -0.000000 22.151288
LeftHandThumb1 -26.253704 0.000000 33.147579
Head 21.238129 2.936923 10.541231
2374
root -3.184436 33.238940 0.178276 9.322139 -1.203552 2.293232
RightUpLeg -2.318545 -5.738572 -1.131394
RightLeg 1.190386 -0.000000 -0.000000
RightFoot -11.627993 -3.569919 3.450067
RightToeBase 4.962529 -0.000000 -0.000000
LeftUpLeg -1.725094 4.010542 1.824639
LeftLeg 0.701092 -0.000000 -0.000000
LeftFoot -9.926663 1.308014 -10.174735
LeftToeBase 7.195088 -0.000000 -0.000000
Spine -14.570079 -0.797419 -1.127603
RightShoulder -5.377660 -35.147879 -8.256047
RightArm 133.706907 -51.429445 -43.711530
RightForeArm -18.188839 -0.000000 111.783244
RightHand 6.597452 0.000000 17.081964
RightHandThumb1 -24.326973 -0.000000 -32.862282
LeftShoulder -24.888799 -18.079335 57.846727
LeftArm 84.132950 -52.420937 -62.621024
LeftForeArm -18.212782 -0.000000 149.289436
LeftHand 10.176497 -0.000000 21.309270
LeftHandThumb1 -26.253704 0.000000 33.147579
Head 21.085491 2.873945 10.583040
2375
root -3.190415 33.240878 0.168969 9.341644 -1.242677 2.304723
RightUpLeg -2.412623 -5.735836 -1.129821
RightLeg 1.297322 -0.000000 -0.000000
RightFoot -11.667587 -3.564014 3.424498
RightToeBase 4.960307 -0.000000 -0.000000
LeftUpLeg -1.790595 3.997558 1.818696
LeftLeg 0.773105 -0.000000 -0.000000
LeftFoot -9.938680 1.339028 -10.218612
LeftToeBase 7.182381 -0.000000 -0.000000
Spine -14.529039 -0.765231 -1.193190
RightShoulder -5.176984 -35.044628 -8.307222
RightArm 134.243400 -50.932333 -44.072810
RightForeArm -17.930036 -0.000000 112.111360
RightHand 7.756272 0.000000 19.013056
RightHandThumb1 -24.326973 -0.000000 -32.862282
LeftShoulder -24.900069 -18.125369 57.780742
LeftArm 84.864080 -52.271907 -63.270570
LeftForeArm -18.011114 -0.000000 149.425968
LeftHand 10.236587 -0.000000 20.776344
LeftHandThumb1 -26.253704 0.000000 33.147579
Head 20.969162 2.797493 10.654372
2376
root -3.195500 33.243567 0.159600 9.372146 -1.291039 2.310609
RightUpLeg -2.521183 -5.762278 -1.122851
RightLeg 1.403179 -0.000000 -0.000000
RightFoot -11.686335 -3.511242 3.396545
RightToeBase 4.998689 -0.000000 -0.000000
LeftUpLeg -1.865252 3.979600 1.821436
LeftLeg 0.857215 -0.000000 -0.000000
LeftFoot -9.930589 1.368235 -10.199394
LeftToeBase 7.086935 -0.000000 -0.000000
Spine -14.519222 -0.722437 -1.253569
RightShoulder -5.001704 -34.997804 -8.369056
RightArm 134.835324 -50.219144 -44.716314
RightForeArm -17.772184 -0.000000 112.245375
RightHand 8.652053 0.000000 17.952651
RightHandThumb1 -24.326973 -0.000000 -32.862282
LeftShoulder -24.895008 -18.165616 57.740138
LeftArm 85.404058 -52.107171 -63.721251
LeftForeArm -17.803428 -0.000000 149.516385
LeftHand 10.526562 0.000000 20.214492
LeftHandThumb1 -26.253704 0.000000 33.147579
Head 20.898887 2.688183 10.729603
